<svg width="61" height="64" viewBox="0 0 61 64" fill="none" xmlns="http://www.w3.org/2000/svg">
<path d="M30.5 0.020874C13.6512 0.020874 0 14.1881 0 31.6737C0 49.1593 13.6512 63.3265 30.5 63.3265C47.3488 63.3265 61 49.1593 61 31.6737C61 14.1881 47.3488 0.020874 30.5 0.020874ZM30.5 12.2736C36.477 12.2736 41.3226 17.3023 41.3226 23.5052C41.3226 29.7082 36.477 34.7369 30.5 34.7369C24.523 34.7369 19.6774 29.7082 19.6774 23.5052C19.6774 17.3023 24.523 12.2736 30.5 12.2736ZM30.5 56.1791C23.2808 56.1791 16.8119 52.7841 12.4829 47.4746C14.795 42.9564 19.3208 39.8422 24.5968 39.8422C24.8919 39.8422 25.1871 39.8932 25.47 39.9826C27.0688 40.5186 28.7413 40.8632 30.5 40.8632C32.2587 40.8632 33.9436 40.5186 35.53 39.9826C35.8129 39.8932 36.1081 39.8422 36.4032 39.8422C41.6792 39.8422 46.205 42.9564 48.5171 47.4746C44.1881 52.7841 37.7192 56.1791 30.5 56.1791Z" fill="black"/>
</svg>
