<svg width="23" height="24" viewBox="0 0 23 24" fill="none" xmlns="http://www.w3.org/2000/svg">
<path d="M11.5015 0.148438C5.15036 0.148438 0.002981 5.02878 0.002981 11.0519C0.002981 13.5471 0.896811 15.8326 2.37904 17.6726C1.70979 19.7379 0.317393 21.4888 0.294935 21.5098C-0.00151061 21.8767 -0.0823595 22.4114 0.0883215 22.8727C0.259003 23.334 0.649772 23.6328 1.08097 23.6328C3.8433 23.6328 6.02173 22.2856 7.32879 21.2057C8.62686 21.6827 10.0282 21.9553 11.5015 21.9553C17.8526 21.9553 23 17.075 23 11.0519C23 5.02878 17.8526 0.148438 11.5015 0.148438ZM11.5015 19.4392C10.3022 19.4392 9.11645 19.2242 7.98007 18.8049L6.96048 18.4274L6.08462 19.1508C5.44232 19.6803 4.56196 20.2726 3.50194 20.671C3.82983 20.0367 4.14873 19.3238 4.39577 18.5637L4.87188 17.0907L3.94661 15.948C3.13363 14.9362 2.15895 13.264 2.15895 11.0519C2.15895 6.4284 6.34962 2.66462 11.5015 2.66462C16.6534 2.66462 20.844 6.4284 20.844 11.0519C20.844 15.6754 16.6534 19.4392 11.5015 19.4392Z" fill="black"/>
</svg>
