<svg width="20" height="23" viewBox="0 0 20 23" fill="none" xmlns="http://www.w3.org/2000/svg">
<path d="M4.0625 9.93401H0.937501C0.419727 9.93401 0 10.4054 0 10.987V21.5166C0 22.0982 0.419727 22.5696 0.937501 22.5696H4.0625C4.58028 22.5696 5 22.0982 5 21.5166V10.987C5 10.4054 4.58028 9.93401 4.0625 9.93401ZM2.5 20.8147C1.98223 20.8147 1.5625 20.3432 1.5625 19.7617C1.5625 19.1802 1.98223 18.7087 2.5 18.7087C3.01778 18.7087 3.4375 19.1802 3.4375 19.7617C3.4375 20.3432 3.01778 20.8147 2.5 20.8147ZM15 3.67992C15 5.54086 13.9856 6.5847 13.7001 7.82808H17.6737C18.9783 7.82808 19.9939 9.0454 20 10.377C20.0033 11.1641 19.7052 12.0113 19.2406 12.5355L19.2363 12.5403C19.6206 13.5642 19.5581 14.9989 18.8727 16.0269C19.2118 17.163 18.8701 18.5586 18.2328 19.3068C18.4007 20.0789 18.3205 20.736 17.9927 21.2649C17.1954 22.5515 15.2194 22.5696 13.5484 22.5696L13.4373 22.5696C11.5511 22.5688 10.0074 21.7975 8.76696 21.1777C8.14364 20.8662 7.32864 20.4807 6.71028 20.4679C6.45481 20.4626 6.25 20.2285 6.25 19.9415V10.5626C6.25 10.4222 6.30008 10.2875 6.38899 10.1888C7.93641 8.4714 8.6018 6.65314 9.87012 5.2262C10.4484 4.57547 10.6587 3.59252 10.862 2.64195C11.0357 1.83025 11.3991 0.106323 12.1875 0.106323C13.125 0.106323 15 0.457312 15 3.67992Z" fill="black"/>
</svg>
