<svg width="21" height="24" viewBox="0 0 21 24" fill="none" xmlns="http://www.w3.org/2000/svg">
<path d="M20.3993 13.4597C20.783 12.7702 21 12.0348 21 11.1456C21 9.10195 19.3717 7.17205 17.2454 7.17205H15.6494C15.8646 6.57726 16.0366 5.86594 16.0366 5.01115C16.0366 1.63126 14.3876 0.148438 11.8685 0.148438C9.17319 0.148438 9.32693 4.55627 8.729 5.19084C7.73382 6.247 6.55834 8.27603 5.72075 9.06318H1.4C0.626806 9.06318 0 9.72839 0 10.549V21.6924C0 22.513 0.626806 23.1782 1.4 23.1782H4.2C4.85157 23.1782 5.3991 22.7058 5.55529 22.0662C7.50256 22.1126 8.83916 23.9206 13.3341 23.9206C13.65 23.9206 14 23.9211 14.3062 23.9211C17.6801 23.9211 19.2056 22.0906 19.2474 19.4948C19.8301 18.6393 20.1355 17.4926 20.006 16.3844C20.4371 15.5277 20.6038 14.5112 20.3993 13.4597ZM17.6978 15.9591C18.2472 16.9402 17.7529 18.2533 17.0879 18.6321C17.4247 20.897 16.3175 21.6919 14.7639 21.6919H13.1093C9.97504 21.6919 7.94548 19.9359 5.6 19.9359V11.2919H6.07775C7.3185 11.2919 9.05188 8.00037 10.2139 6.7667C11.4546 5.44992 11.0412 3.25513 11.8685 2.37712C13.9366 2.37712 13.9366 3.90841 13.9366 5.01115C13.9366 6.82985 12.6958 7.64471 12.6958 9.40073H17.2454C18.1689 9.40073 18.8961 10.2787 18.9 11.1567C18.9039 12.0343 18.3391 12.9123 17.9257 12.9123C18.5158 13.5881 18.6419 15.0127 17.6978 15.9591ZM3.85 20.2066C3.85 20.822 3.37991 21.3209 2.8 21.3209C2.22009 21.3209 1.75 20.822 1.75 20.2066C1.75 19.5912 2.22009 19.0923 2.8 19.0923C3.37991 19.0923 3.85 19.5912 3.85 20.2066Z" fill="black"/>
</svg>
