<svg width="50" height="40" viewBox="0 0 50 40" fill="none" xmlns="http://www.w3.org/2000/svg">
<path d="M48.9552 6.25865C48.3802 3.7951 46.6859 1.8549 44.5347 1.19646C40.6354 0 25 0 25 0C25 0 9.36464 0 5.46532 1.19646C3.31411 1.855 1.61984 3.7951 1.0448 6.25865C0 10.724 0 20.0404 0 20.0404C0 20.0404 0 29.3569 1.0448 33.8222C1.61984 36.2857 3.31411 38.1451 5.46532 38.8035C9.36464 40 25 40 25 40C25 40 40.6354 40 44.5347 38.8035C46.6859 38.1451 48.3802 36.2857 48.9552 33.8222C50 29.3569 50 20.0404 50 20.0404C50 20.0404 50 10.724 48.9552 6.25865ZM19.8863 28.4991V11.5818L32.9545 20.0406L19.8863 28.4991Z" fill="#0C4A6E"/>
</svg>
