<svg width="40" height="40" viewBox="0 0 40 40" fill="none" xmlns="http://www.w3.org/2000/svg">
<path d="M35.8884 9.96871C35.9138 10.4062 35.9138 10.8438 35.9138 11.2812C35.9138 24.6249 27.6651 40 12.5889 40C7.94417 40 3.62947 38.3437 0 35.4688C0.659924 35.5625 1.29438 35.5938 1.9797 35.5938C5.81213 35.5938 9.34011 34 12.1574 31.2813C8.55331 31.1875 5.53299 28.2813 4.49236 24.2812C5.00002 24.3749 5.5076 24.4375 6.04065 24.4375C6.77667 24.4375 7.51276 24.3124 8.198 24.0938C4.44166 23.1562 1.6243 19.0937 1.6243 14.1875V14.0625C2.71564 14.8125 3.98478 15.2813 5.32986 15.3437C3.12173 13.5312 1.67508 10.4375 1.67508 6.93743C1.67508 5.06246 2.0811 3.34371 2.79181 1.8437C6.82737 7.9687 12.8934 11.9686 19.6954 12.4062C19.5685 11.6562 19.4923 10.875 19.4923 10.0938C19.4923 4.5312 23.1472 0 27.6903 0C30.0507 0 32.1827 1.21875 33.6802 3.1875C35.533 2.75002 37.3096 1.90623 38.8833 0.750005C38.2741 3.09381 36.9797 5.06256 35.2792 6.31247C36.929 6.09383 38.528 5.53121 40 4.75003C38.8834 6.74995 37.4874 8.53113 35.8884 9.96871Z" fill="#0C4A6E"/>
</svg>
